<svg width="150" height="150" viewBox="0 0 150 150" fill="none" xmlns="http://www.w3.org/2000/svg">
<path d="M109.091 81.8182H40.9091V88.6364H109.091V81.8182Z" fill="white"/>
<path d="M109.091 102.273H40.9091V109.091H109.091V102.273Z" fill="white"/>
<path d="M81.8181 20.4545H40.9091V27.2727H81.8181V20.4545Z" fill="white"/>
<path d="M109.091 122.727H40.9091V129.545H109.091V122.727Z" fill="white"/>
<path d="M109.091 61.3636H40.9091V68.1818H109.091V61.3636Z" fill="white"/>
<path d="M126.239 150C126.239 150 129.545 150 129.545 146.666V30L99.7909 0H23.7613C23.7613 0 20.4545 0 20.4545 3.33409V146.659C20.4545 150 23.7613 150 23.7613 150H126.239ZM27.2727 6.81818H95.4545V27.2727C95.4545 34.0909 102.273 34.0909 102.273 34.0909H122.727V143.182H27.2727V6.81818Z" fill="white"/>
<path d="M109.091 40.9091H40.9091V47.7273H109.091V40.9091Z" fill="white"/>
</svg>
