<svg width="150" height="150" viewBox="0 0 150 150" fill="none" xmlns="http://www.w3.org/2000/svg">
<g clip-path="url(#clip0_6_11)">
<path d="M147.5 112.5L110.312 147.5L102.875 82.5L147.5 112.5Z" fill="white"/>
<path d="M102.875 82.5L102.882 82.56L103.712 83.0625L102.875 82.5Z" fill="white"/>
<path d="M147.5 112.5L135 105L110 140L110.312 147.5L147.5 112.5Z" fill="white"/>
<path d="M60 77.5L22.5075 147.5L2.5 105.017L60 77.5Z" fill="white"/>
<path d="M2.5 105.017L22.5075 147.5L25 142.5L12.5825 100.192L2.5 105.017Z" fill="white"/>
<path d="M90 2.5L87.62 48.05L59.41 76.3775L5 102.5L90 2.5Z" fill="white"/>
<path d="M90 2.5L5 102.5L21.26 94.6925L89.37 14.565L90 2.5Z" fill="white"/>
<path d="M110 147.5H23.4L60.9525 77.0625L87.86 50L102.448 81.8275L110 147.5Z" fill="white"/>
<path d="M147.5 112.5L102.915 82.8545L87.575 49.6985L90.0534 2.5C115.177 14.3061 146.405 67.8239 147.5 112.5Z" fill="white"/>
<path d="M147.5 112.5C146.41 68.063 115.513 14.8959 90.46 2.71027C110.131 24.7198 134.17 71.1409 135 105L147.5 112.5Z" fill="white"/>
<path d="M90.9279 0.1791C90.4422 -0.0137542 89.9085 -0.0501302 89.4012 0.0750521C88.8939 0.200234 88.4384 0.480724 88.0983 0.87735L0.598269 103.377C0.286211 103.743 0.0861829 104.191 0.0221056 104.668C-0.0419717 105.145 0.0326142 105.63 0.236944 106.065L20.2369 148.565C20.4391 148.995 20.7592 149.358 21.16 149.612C21.5607 149.866 22.0256 150.001 22.5001 150.001H110C110.633 150.001 111.243 149.761 111.707 149.33L149.207 114.33C149.457 114.095 149.657 113.812 149.793 113.497C149.929 113.183 150 112.844 150 112.501C150 66.8173 116.721 10.4965 90.9279 0.1791ZM144.873 107.745L104.475 80.8128L90.0294 49.515L92.301 6.3688C115.286 18.8116 142.844 66.6955 144.873 107.745ZM85.0529 48.9129L58.5373 75.4286L12.0537 97.66L87.1151 9.73065L85.0529 48.9129ZM62.0289 79.0072L86.7323 54.3038L100.064 83.1845L107.196 145.001H26.6769L62.0289 79.0072ZM105.601 87.5729L143.484 112.828L111.915 142.293L105.601 87.5729ZM5.82047 106.185L54.1885 83.0523L22.6442 141.935L5.82047 106.185Z" fill="black"/>
</g>
<defs>
<clipPath id="clip0_6_11">
<rect width="150" height="150" fill="white"/>
</clipPath>
</defs>
</svg>
