<svg width="150" height="150" viewBox="0 0 150 150" fill="none" xmlns="http://www.w3.org/2000/svg">
<g clip-path="url(#clip0_6_7)">
<path d="M86.9595 66.1252C102.557 46.8638 105.927 32.7863 111.209 34.1335C115.338 35.1866 113.354 38.3521 124.266 40.5856C134.744 42.73 145.449 35.0248 147.673 25.7283C150.636 16.6165 145.834 5.16379 135.092 2.33652C124.462 -1.10966 111.791 4.49186 108.008 13.9756C102.528 24.8175 99.7175 39.1365 82.0048 51.4266L68.4092 60.8598L21.3599 120.359C16.0991 128.052 12.9405 138.285 19.7612 148.028L86.9595 66.1252ZM137.435 30.2126C128.373 38.3098 112.343 33.3716 112.371 22.5627C111.729 12.6182 125.223 3.56134 135.253 9.23776C143.698 13.2179 143.638 24.6694 137.435 30.2126Z" fill="white" stroke="white" stroke-width="7.54062"/>
<path d="M62.9262 66.6504C47.3766 47.3578 44.042 33.2736 38.7562 34.6103C34.6244 35.6551 36.6009 38.8246 25.6828 41.0363C15.1998 43.1599 4.51398 35.4332 2.313 26.1324C-0.626488 17.0147 4.20351 5.57154 14.9525 2.76576C25.5915 -0.659208 38.2483 4.96756 42.0069 14.4589C47.4606 25.3116 50.2353 39.6363 67.9175 51.9616L81.4896 61.4221L128.391 121.015C133.632 128.718 136.766 138.958 129.921 148.687L62.9262 66.6504ZM12.5405 30.637C21.5817 38.7524 37.6238 33.8461 37.6232 23.0372C38.2898 13.094 24.8185 4.01026 14.7743 9.66661C6.31908 13.6298 6.35108 25.0815 12.5405 30.637Z" fill="white" stroke="white" stroke-width="7.54062"/>
</g>
<defs>
<clipPath id="clip0_6_7">
<rect width="150" height="150" fill="white"/>
</clipPath>
</defs>
</svg>
